<svg width="33" height="27" viewBox="0 0 33 27" fill="none" xmlns="http://www.w3.org/2000/svg">
<path fill-rule="evenodd" clip-rule="evenodd" d="M4.69839 14.0363L0 26.8354V26.9178V27H3.31768H6.63537L7.0825 25.5656L7.52963 24.1312L7.83271 23.1468L8.13579 22.1624H12.337H16.5384L17.0616 23.8218L17.5847 25.4812L17.8248 26.2406L18.0649 27H21.4336H24.8023L24.7501 26.8594L24.6979 26.7187L19.9896 13.9779L15.2814 1.23708H12.3391H9.39678L4.69839 14.0363ZM26.5802 17.4373V27H29.6212H32.6621V17.4373V7.87469H29.6212H26.5802V17.4373ZM13.673 12.917L14.9795 17.1156V17.2202V17.3248H12.3196H9.65976L9.7127 17.128L9.76563 16.9311L11.042 12.7989L12.3186 8.6667L12.3426 8.69258L12.3664 8.71845L13.673 12.917Z" fill="#3E7DFF" fill-opacity="0.9"/>
<path d="M33 2.9813C33 4.62782 31.462 5.9626 29.5648 5.9626C27.6677 5.9626 26.1297 4.62782 26.1297 2.9813C26.1297 1.33477 27.6677 0 29.5648 0C31.462 0 33 1.33477 33 2.9813Z" fill="#3E7DFF" fill-opacity="0.9"/>
</svg>
