<svg width="162" height="41" viewBox="0 0 162 41" fill="none" xmlns="http://www.w3.org/2000/svg">
<rect width="162" height="41" rx="20.5" fill="#3E7DFF"/>
<path d="M28.0137 26.3252C26.1738 26.3252 24.7207 25.7305 23.6543 24.541C22.5938 23.3457 22.0635 21.7168 22.0635 19.6543C22.0635 17.5918 22.5938 15.9658 23.6543 14.7764C24.7207 13.5869 26.1738 12.9922 28.0137 12.9922C29.5137 12.9922 30.7793 13.4404 31.8105 14.3369C32.8477 15.2275 33.416 16.3643 33.5156 17.7471H30.9316C30.8027 17.0146 30.4717 16.4287 29.9385 15.9893C29.4111 15.5498 28.7695 15.3301 28.0137 15.3301C27.0176 15.3301 26.2295 15.7168 25.6494 16.4902C25.0693 17.2637 24.7793 18.3184 24.7793 19.6543C24.7793 20.9902 25.0693 22.0479 25.6494 22.8271C26.2295 23.6006 27.0205 23.9873 28.0225 23.9873C28.7842 23.9873 29.4287 23.7793 29.9561 23.3633C30.4834 22.9473 30.8115 22.3906 30.9404 21.6934H33.5244C33.4131 23.0645 32.8477 24.1807 31.8281 25.042C30.8145 25.8975 29.543 26.3252 28.0137 26.3252ZM38.3633 21.9834H37.9063V26H35.3487V16.3057H37.9063V20.085H38.3282L41.2549 16.3057H44.1641L40.4463 20.7266L44.3575 26H41.3077L38.3633 21.9834ZM48.836 24.2246C49.4278 24.2246 49.9229 24.0576 50.3214 23.7236C50.7198 23.3896 50.919 22.9766 50.919 22.4844V21.7725L48.9591 21.8955C47.8692 21.9717 47.3243 22.3613 47.3243 23.0645C47.3243 23.4219 47.462 23.7061 47.7374 23.917C48.0186 24.1221 48.3848 24.2246 48.836 24.2246ZM47.9923 26.1494C47.0548 26.1494 46.2901 25.8828 45.6983 25.3496C45.1124 24.8164 44.8194 24.1104 44.8194 23.2314C44.8194 22.3584 45.1417 21.6729 45.7862 21.1748C46.4366 20.6709 47.3653 20.3838 48.5723 20.3135L50.919 20.1729V19.3818C50.919 18.9775 50.7784 18.667 50.4971 18.4502C50.2159 18.2275 49.8116 18.1162 49.2843 18.1162C48.335 18.1162 47.752 18.415 47.5352 19.0127H45.1798C45.2618 18.1162 45.6837 17.4072 46.4454 16.8857C47.213 16.3584 48.2061 16.0947 49.4249 16.0947C50.7022 16.0947 51.6895 16.3818 52.3868 16.9561C53.0899 17.5303 53.4415 18.3389 53.4415 19.3818V26H50.963V24.7344H50.8048C50.5528 25.1797 50.1778 25.5283 49.6798 25.7803C49.1817 26.0264 48.6192 26.1494 47.9923 26.1494ZM64.0724 26H61.5148V22.124H61.3566C60.7413 22.6689 59.9767 22.9414 59.0626 22.9414C57.9435 22.9414 57.0499 22.6074 56.382 21.9395C55.7198 21.2715 55.3888 20.3896 55.3888 19.2939V16.3057H57.9464V19.0127C57.9464 19.5459 58.1017 19.9678 58.4122 20.2783C58.7228 20.583 59.1564 20.7354 59.713 20.7354C60.4454 20.7354 61.046 20.5186 61.5148 20.085V16.3057H64.0724V26ZM69.7638 24.2246C70.3556 24.2246 70.8507 24.0576 71.2492 23.7236C71.6476 23.3896 71.8468 22.9766 71.8468 22.4844V21.7725L69.8869 21.8955C68.797 21.9717 68.2521 22.3613 68.2521 23.0645C68.2521 23.4219 68.3898 23.7061 68.6652 23.917C68.9464 24.1221 69.3127 24.2246 69.7638 24.2246ZM68.9201 26.1494C67.9826 26.1494 67.2179 25.8828 66.6261 25.3496C66.0402 24.8164 65.7472 24.1104 65.7472 23.2314C65.7472 22.3584 66.0695 21.6729 66.714 21.1748C67.3644 20.6709 68.2931 20.3838 69.5002 20.3135L71.8468 20.1729V19.3818C71.8468 18.9775 71.7062 18.667 71.425 18.4502C71.1437 18.2275 70.7394 18.1162 70.2121 18.1162C69.2629 18.1162 68.6798 18.415 68.463 19.0127H66.1076C66.1896 18.1162 66.6115 17.4072 67.3732 16.8857C68.1408 16.3584 69.1339 16.0947 70.3527 16.0947C71.63 16.0947 72.6173 16.3818 73.3146 16.9561C74.0177 17.5303 74.3693 18.3389 74.3693 19.3818V26H71.8908V24.7344H71.7326C71.4806 25.1797 71.1056 25.5283 70.6076 25.7803C70.1095 26.0264 69.547 26.1494 68.9201 26.1494ZM84.1213 16.3057V18.3184H81.2209V26H78.6633V18.3184H75.7629V16.3057H84.1213ZM89.6545 21.0869H88.134V23.9873H89.6545C90.1409 23.9873 90.5276 23.8555 90.8147 23.5918C91.1077 23.3223 91.2541 22.9707 91.2541 22.5371C91.2541 22.1035 91.1077 21.7549 90.8147 21.4912C90.5217 21.2217 90.135 21.0869 89.6545 21.0869ZM85.5764 26V16.3057H88.134V19.1006H90.0588C91.2014 19.1006 92.1096 19.4141 92.7834 20.041C93.4631 20.6621 93.803 21.5 93.803 22.5547C93.803 23.6094 93.4631 24.4473 92.7834 25.0684C92.1096 25.6895 91.2014 26 90.0588 26H85.5764Z" fill="white"/>
<path fill-rule="evenodd" clip-rule="evenodd" d="M117.642 12.0155C117.606 12.0216 117.469 12.0573 117.339 12.0946C117.209 12.132 116.952 12.2407 116.767 12.3364C116.582 12.432 116.416 12.5249 116.398 12.5429C116.38 12.5609 116.306 12.6165 116.234 12.6664C116.162 12.7164 116.001 12.8622 115.877 12.9905C115.752 13.1189 115.582 13.3306 115.497 13.4611C115.413 13.5915 115.306 13.7767 115.26 13.8724C115.213 13.9682 115.161 14.0948 115.142 14.1538C115.124 14.2127 115.1 14.273 115.089 14.2877C115.078 14.3024 115.048 14.4109 115.021 14.5288C114.988 14.6768 114.973 14.8552 114.972 15.1048C114.971 15.4665 114.971 15.4665 115.142 15.4754C115.236 15.4803 115.396 15.4697 115.497 15.4517C115.599 15.4337 115.759 15.3976 115.853 15.3716C115.947 15.3456 116.091 15.2937 116.173 15.2562C116.254 15.2187 116.328 15.1765 116.337 15.1624C116.346 15.1483 116.42 15.098 116.503 15.0505C116.59 15.0004 116.763 14.85 116.917 14.6907C117.062 14.5403 117.248 14.3217 117.33 14.2051C117.412 14.0884 117.538 13.8785 117.612 13.7385C117.685 13.5985 117.77 13.4011 117.8 13.2998C117.831 13.1985 117.879 12.9961 117.907 12.8501C117.938 12.6876 117.957 12.4705 117.957 12.2908C117.957 11.9971 117.957 11.9971 117.832 12.0007C117.764 12.0027 117.678 12.0094 117.642 12.0155ZM117.352 15.613C117.258 15.6255 117.11 15.6534 117.023 15.6751C116.937 15.6968 116.721 15.7577 116.545 15.8103C116.369 15.863 116.15 15.9384 116.059 15.9778C115.967 16.0172 115.756 16.0982 115.59 16.1577C115.326 16.2518 115.258 16.2658 115.063 16.2654C114.875 16.265 114.794 16.2492 114.551 16.1647C114.392 16.1095 114.216 16.0404 114.16 16.0111C114.103 15.9817 113.967 15.9281 113.856 15.8919C113.746 15.8558 113.528 15.7903 113.371 15.7465C113.215 15.7026 113.002 15.6575 112.898 15.6462C112.794 15.6349 112.576 15.6342 112.414 15.6447C112.252 15.6551 112.027 15.6898 111.914 15.7216C111.801 15.7534 111.62 15.8103 111.511 15.8479C111.403 15.8855 111.208 15.976 111.079 16.0489C110.95 16.1218 110.807 16.2075 110.76 16.2393C110.714 16.2711 110.613 16.3471 110.535 16.4083C110.457 16.4695 110.309 16.6081 110.206 16.7164C110.103 16.8247 109.96 16.9928 109.888 17.09C109.816 17.1873 109.691 17.3801 109.61 17.5187C109.529 17.6572 109.402 17.9243 109.328 18.1122C109.254 18.3001 109.165 18.5713 109.13 18.715C109.096 18.8587 109.052 19.0787 109.033 19.2039C109.011 19.3501 108.999 19.681 109 20.1282C109.001 20.6393 109.014 20.914 109.047 21.1597C109.072 21.3439 109.121 21.6332 109.155 21.8028C109.189 21.9723 109.273 22.3038 109.341 22.5395C109.409 22.7752 109.53 23.1309 109.609 23.3298C109.687 23.5287 109.817 23.8292 109.897 23.9976C109.976 24.1659 110.142 24.4733 110.265 24.6807C110.387 24.8881 110.514 25.0978 110.546 25.1466C110.578 25.1955 110.698 25.3643 110.813 25.5217C110.927 25.6792 111.107 25.9114 111.212 26.0378C111.316 26.1642 111.468 26.3289 111.548 26.4038C111.629 26.4787 111.773 26.5956 111.868 26.6636C111.964 26.7317 112.1 26.8172 112.171 26.8538C112.242 26.8903 112.368 26.9382 112.451 26.9602C112.533 26.9822 112.708 27.0001 112.839 27C112.987 26.9999 113.161 26.9792 113.301 26.9452C113.424 26.9152 113.603 26.8615 113.7 26.8259C113.797 26.7903 113.898 26.7489 113.924 26.7339C113.95 26.7189 114.097 26.6652 114.251 26.6147C114.405 26.5641 114.659 26.496 114.817 26.4634C115.052 26.4146 115.152 26.407 115.379 26.4206C115.531 26.4297 115.72 26.4538 115.8 26.474C115.88 26.4943 116.034 26.5377 116.142 26.5706C116.251 26.6035 116.44 26.6727 116.563 26.7243C116.686 26.776 116.858 26.8401 116.945 26.8668C117.031 26.8936 117.173 26.9307 117.26 26.9492C117.347 26.9678 117.554 26.9836 117.721 26.9844C117.965 26.9856 118.061 26.974 118.221 26.9239C118.329 26.8898 118.466 26.8336 118.525 26.799C118.583 26.7645 118.704 26.6806 118.792 26.6128C118.881 26.5449 119.024 26.4144 119.111 26.3228C119.197 26.2312 119.302 26.1141 119.345 26.0625C119.387 26.0109 119.492 25.8723 119.578 25.7544C119.664 25.6365 119.752 25.5142 119.774 25.4825C119.795 25.4509 119.903 25.2882 120.013 25.1209C120.123 24.9536 120.265 24.7263 120.327 24.6158C120.389 24.5052 120.469 24.3545 120.504 24.2809C120.54 24.2072 120.626 24.0264 120.695 23.879C120.765 23.7316 120.867 23.4737 120.922 23.3057C120.98 23.1307 121.011 22.9963 120.996 22.9909C120.982 22.9857 120.84 22.9029 120.68 22.8068C120.521 22.7108 120.301 22.5571 120.191 22.4653C120.081 22.3734 119.926 22.226 119.847 22.1376C119.769 22.0492 119.648 21.8946 119.58 21.7941C119.512 21.6936 119.434 21.567 119.407 21.5128C119.38 21.4586 119.309 21.2773 119.249 21.11C119.185 20.9327 119.123 20.6981 119.101 20.5474C119.08 20.4053 119.063 20.1127 119.063 19.8973C119.063 19.6717 119.079 19.4104 119.101 19.2811C119.122 19.1576 119.176 18.9568 119.22 18.8348C119.263 18.7128 119.335 18.5403 119.379 18.4515C119.423 18.3627 119.52 18.2033 119.593 18.0972C119.667 17.9913 119.782 17.8468 119.849 17.7762C119.915 17.7056 120.065 17.5665 120.181 17.467C120.296 17.3676 120.441 17.2533 120.503 17.2132C120.564 17.1731 120.615 17.1275 120.615 17.1119C120.615 17.0964 120.577 17.0272 120.53 16.9583C120.484 16.8893 120.332 16.7183 120.193 16.5784C120.051 16.4357 119.854 16.2703 119.745 16.202C119.637 16.135 119.449 16.0303 119.326 15.9694C119.203 15.9085 118.972 15.8209 118.813 15.7747C118.653 15.7285 118.443 15.6736 118.346 15.6527C118.248 15.6319 118.023 15.6093 117.846 15.6026C117.669 15.5959 117.446 15.6006 117.352 15.613Z" fill="white"/>
<path fill-rule="evenodd" clip-rule="evenodd" d="M133.445 12.0584L133.407 12.1168L133.567 12.44L133.727 12.7631L133.883 13.0674L134.038 13.3717V13.382V13.3924H134.011H133.983L133.84 13.4897L133.696 13.5871L133.568 13.6773L133.439 13.7675L133.278 13.9154L133.116 14.0633L132.941 14.2701L132.765 14.4768L132.594 14.7511L132.423 15.0253L132.307 15.3156L132.191 15.606L132.141 15.8313L132.091 16.0567L132.064 16.2836L132.038 16.5105V16.6117V16.7128L135.991 16.7061L139.945 16.6993L139.939 16.4851L139.933 16.2709L139.896 16.045L139.859 15.8192L139.795 15.6166L139.731 15.414L139.622 15.1707L139.513 14.9274L139.379 14.7155L139.245 14.5036L139.184 14.4233L139.122 14.343L138.941 14.1457L138.759 13.9485L138.557 13.7824L138.354 13.6163L138.266 13.5589L138.177 13.5016L138.076 13.4437L137.975 13.3858L137.968 13.3795L137.961 13.3731L138.13 13.0414L138.299 12.7096L138.434 12.4418L138.569 12.174L138.569 12.1192L138.57 12.0643L138.539 12.0321L138.509 12H138.427H138.345L138.251 12.1807L138.157 12.3615L138.019 12.6293L137.881 12.897L137.801 13.0493L137.72 13.2016L137.706 13.2173L137.691 13.2331L137.501 13.1528L137.311 13.0724L137.099 13.0203L136.886 12.9682L136.633 12.9198L136.38 12.8715L136 12.8722L135.62 12.8729L135.367 12.9205L135.114 12.9682L134.901 13.0203L134.689 13.0724L134.499 13.1528L134.309 13.2331L134.294 13.2173L134.28 13.2016L134.199 13.0493L134.119 12.897L133.981 12.6293L133.843 12.3615L133.749 12.1807L133.655 12H133.569H133.484L133.445 12.0584ZM134.419 14.6258L134.494 14.7141L134.497 14.7695L134.501 14.8249L134.495 14.9047L134.489 14.9844L134.439 15.058L134.39 15.1315L134.293 15.1592L134.195 15.1869L134.148 15.1709L134.101 15.1548L134.042 15.1247L133.983 15.0946L133.947 15.0213L133.911 14.9481L133.912 14.8464L133.913 14.7446L133.946 14.6828L133.978 14.6209L134.052 14.5675L134.127 14.5142L134.236 14.5259L134.345 14.5375L134.419 14.6258ZM137.948 14.5691L138.022 14.6209L138.054 14.6828L138.087 14.7446L138.088 14.8464L138.089 14.9481L138.053 15.0213L138.017 15.0946L137.958 15.1247L137.899 15.1548L137.852 15.1709L137.805 15.1869L137.707 15.1592L137.61 15.1315L137.561 15.058L137.511 14.9844L137.505 14.9047L137.499 14.8249L137.503 14.7695L137.506 14.7141L137.576 14.632L137.646 14.5499L137.696 14.5366L137.747 14.5232L137.81 14.5203L137.873 14.5174L137.948 14.5691ZM130.62 16.8719L130.557 16.8926L130.456 16.9523L130.354 17.012L130.246 17.1234L130.137 17.2348L130.068 17.3821L130 17.5294V19.7117V21.894L130.067 22.0412L130.134 22.1885L130.251 22.3156L130.369 22.4426L130.468 22.4963L130.567 22.5499L130.727 22.5737L130.886 22.5976L131.034 22.573L131.182 22.5485L131.3 22.4846L131.418 22.4207L131.511 22.318L131.605 22.2153L131.676 22.0546L131.747 21.894L131.754 19.771L131.76 17.648L131.721 17.5051L131.682 17.3622L131.595 17.2323L131.507 17.1023L131.366 17.0021L131.225 16.9019L131.132 16.8744L131.038 16.8469L130.861 16.849L130.684 16.8512L130.62 16.8719ZM140.75 16.9306L140.589 17.0192L140.492 17.1192L140.395 17.2192L140.346 17.3208L140.297 17.4223L140.269 17.5642L140.241 17.706L140.241 19.7197L140.241 21.7333L140.275 21.8845L140.309 22.0357L140.374 22.1546L140.44 22.2734L140.549 22.3676L140.658 22.4618L140.74 22.5061L140.821 22.5505L140.974 22.5726L141.127 22.5947L141.279 22.5726L141.431 22.5506L141.526 22.499L141.62 22.4474L141.744 22.3189L141.869 22.1903L141.934 22.0421L142 21.894V19.7251V17.5562L141.951 17.423L141.903 17.2899L141.79 17.1617L141.676 17.0334L141.534 16.9475L141.392 16.8615L141.152 16.8518L140.911 16.842L140.75 16.9306ZM132.08 17.025L132.063 17.0429L132.064 20.0174L132.064 22.9918L132.09 23.1792L132.115 23.3667L132.166 23.47L132.217 23.5734L132.295 23.6758L132.373 23.7782L132.503 23.8691L132.633 23.9599L132.722 23.9944L132.81 24.0288L133.222 24.0426L133.633 24.0564L133.633 25.0504L133.633 26.0443L133.657 26.1997L133.681 26.3551L133.739 26.4782L133.797 26.6013L133.911 26.7297L134.025 26.8581L134.152 26.9198L134.278 26.9815H134.544H134.81L134.937 26.9107L135.063 26.8398L135.168 26.7282L135.272 26.6165L135.345 26.4643L135.418 26.3121L135.425 25.1808L135.432 24.0495H136H136.568L136.575 25.1808L136.582 26.3121L136.654 26.4621L136.726 26.6121L136.83 26.7254L136.934 26.8386L137.062 26.9083L137.19 26.9779L137.418 26.989L137.646 27L137.794 26.9407L137.943 26.8813L138.043 26.7857L138.144 26.69L138.217 26.5769L138.291 26.4638L138.329 26.3087L138.367 26.1536V25.1015V24.0495H138.692H139.016L139.159 24.0216L139.301 23.9937L139.423 23.922L139.544 23.8502L139.661 23.7249L139.778 23.5996L139.832 23.4817L139.886 23.3637L139.912 23.151L139.938 22.9383L139.931 19.9794L139.924 17.0206L136.011 17.0138L132.097 17.0071L132.08 17.025Z" fill="white"/>
</svg>
