<svg width="40" height="27" viewBox="0 0 40 27" fill="none" xmlns="http://www.w3.org/2000/svg">
<path fill-rule="evenodd" clip-rule="evenodd" d="M17.882 0.147233L17.062 0.294467L16.3403 0.526743L15.6185 0.759018L14.9738 1.06161L14.329 1.36421L13.7043 1.76419L13.0796 2.16425L12.4654 2.67183L11.8513 3.1794L11.3184 3.78083L10.7856 4.38219L10.3958 4.93577L10.0062 5.48927L9.5656 6.30673L9.12503 7.12418L8.90795 7.30362L8.69079 7.48306L7.95693 7.66158L7.22306 7.84018L6.60782 8.06126L5.99249 8.28234L5.21193 8.67611L4.43137 9.06981L3.79699 9.52984L3.16253 9.98979L2.6438 10.5058L2.12514 11.0217L1.71737 11.5866L1.3096 12.1514L0.964064 12.8416L0.61845 13.5317L0.428933 14.1452L0.239337 14.7587L0.119708 15.4397L0 16.1208V17.1359V18.151L0.119708 18.8321L0.239337 19.5131L0.43682 20.153L0.634224 20.7929L1.03942 21.5717L1.44461 22.3504L1.88932 22.9301L2.3341 23.5098L2.98762 24.126L3.64105 24.742L4.22233 25.1272L4.80361 25.5124L5.45494 25.834L6.10618 26.1556L6.89892 26.4141L7.69159 26.6726L8.27724 26.8088L8.8629 26.9451L20.3808 26.9725L31.8986 27L32.6014 26.9099L33.3042 26.8199L34.0088 26.6412L34.7134 26.4625L35.3458 26.2006L35.9781 25.9388L36.651 25.508L37.324 25.0773L37.8202 24.5899L38.3165 24.1025L38.6304 23.6482L38.9441 23.1939L39.1799 22.7338L39.4157 22.2737L39.6132 21.6584L39.8107 21.0432L39.9054 20.4075L40 19.772L39.9601 18.684L39.9202 17.596L39.7544 16.9825L39.5886 16.3691L39.2739 15.7228L38.9593 15.0764L38.6129 14.5997L38.2665 14.1231L37.7376 13.6097L37.2085 13.0963L36.5747 12.6812L35.941 12.2659L35.3644 12.0047L34.7878 11.7436L34.1631 11.5492L33.5384 11.3549L33.2168 11.2736L32.8951 11.1923L32.6882 11.0325L32.4811 10.8726L32.3733 10.6678L32.2655 10.463L32.0623 9.67377L31.8591 8.88454L31.5762 8.14078L31.2933 7.39702L30.957 6.73785L30.6207 6.07875L30.0606 5.25616L29.5005 4.43357L28.7864 3.69993L28.0723 2.96629L27.4476 2.4884L26.8229 2.0105L26.2763 1.68145L25.7297 1.3524L25.105 1.06928L24.4803 0.786165L23.8556 0.583796L23.2309 0.38135L22.5282 0.221387L21.8254 0.0613469L20.2636 0.0306737L18.7019 0L17.882 0.147233Z" fill="#3E7DFF" fill-opacity="0.9"/>
</svg>
