<svg width="36" height="36" viewBox="0 0 36 36" fill="none" xmlns="http://www.w3.org/2000/svg">
<path fill-rule="evenodd" clip-rule="evenodd" d="M6.91359 0.112802L6.85436 0.123659C6.48436 0.19148 6.11971 0.285806 5.76323 0.405907V0.405907L5.22782 0.586291L4.65264 0.875599L4.07746 1.16483L3.58445 1.49812V1.49812C3.25654 1.71974 2.95082 1.97253 2.67156 2.25298L2.46892 2.45648L2.29358 2.63257C1.99616 2.93126 1.72815 3.25786 1.49325 3.60786V3.60786V3.60786C1.25814 3.95823 1.0497 4.32577 0.869694 4.70739L0.783314 4.89052L0.734403 4.99421C0.529591 5.42841 0.365037 5.88047 0.242809 6.34473V6.34473V6.34473C0.120757 6.80806 0.0577592 7.28495 0.0553124 7.76407L0.0294987 12.8188L0.00339553 17.9301C0.00113493 18.3728 0.0315564 18.815 0.094412 19.2532V19.2532V19.2532C0.157308 19.6913 0.254972 20.1238 0.386478 20.5464L0.394903 20.5735V20.5735C0.532014 21.014 0.708272 21.4414 0.921568 21.8505L0.978629 21.96V21.96C1.22987 22.4417 1.52681 22.8983 1.86537 23.3233L1.88298 23.3454L1.96013 23.4422C2.25895 23.8172 2.59752 24.1588 2.96991 24.4609V24.4609L3.53013 24.9155L4.18625 25.3115V25.3115C4.62235 25.5747 5.08653 25.7884 5.57013 25.9484L5.73357 26.0024L5.91758 26.0633C6.3878 26.219 6.87243 26.3271 7.36421 26.3861V26.3861L8.10372 26.475L8.56584 26.4753V26.4753C8.78862 26.4754 8.94206 26.6988 8.86216 26.9068L7.72 29.8794L6.59279 32.8131C6.4733 33.124 6.41023 33.4538 6.40653 33.7869V33.7869L6.40543 33.8863C6.40247 34.1528 6.45653 34.4168 6.56397 34.6607V34.6607V34.6607C6.67172 34.9054 6.82375 35.1281 7.01239 35.3175L7.03824 35.3435L7.05802 35.3634C7.25069 35.5568 7.47735 35.7132 7.72665 35.8246V35.8246V35.8246C7.97533 35.9357 8.24437 35.9941 8.51676 35.996L8.59674 35.9965L8.68294 35.9971C8.95088 35.999 9.21597 35.9421 9.45951 35.8303V35.8303V35.8303C9.70501 35.7177 9.93518 35.5742 10.1444 35.4034L15.4563 31.0681L21.0833 26.4755L24.4948 26.4753L27.9064 26.475L28.6459 26.3861V26.3861C29.1377 26.3271 29.6223 26.219 30.0925 26.0633L30.2765 26.0024L30.44 25.9484C30.9236 25.7884 31.3878 25.5747 31.8239 25.3115V25.3115L31.8557 25.2923C32.2713 25.0414 32.6683 24.7608 33.0434 24.4526V24.4526V24.4526C33.4181 24.1447 33.7626 23.7985 34.0689 23.4226V23.4226V23.4226C34.3763 23.0452 34.6525 22.641 34.8928 22.2177V22.2177V22.2177C35.1336 21.7932 35.3393 21.3451 35.5047 20.886V20.886L35.5118 20.8663C35.6734 20.4176 35.7958 19.9557 35.8774 19.4858V19.4858V19.4858C35.959 19.016 36 18.5399 36 18.063V13.2314V8.38503C36 7.91789 35.9596 7.45162 35.8794 6.99143V6.99143L35.8636 6.90084C35.7938 6.50078 35.6931 6.10672 35.5624 5.72222V5.72222L35.3661 5.14459L35.0966 4.60822L34.8271 4.07186L34.4954 3.57675V3.57675C34.2748 3.24744 34.0229 2.94022 33.7432 2.65934L33.5412 2.45648L33.3651 2.27968C33.0682 1.98147 32.7432 1.71255 32.3947 1.47666V1.47666V1.47666C32.0458 1.24056 31.6796 1.03113 31.2992 0.850154L31.1175 0.763705L31.014 0.714469C30.5817 0.508859 30.1317 0.343072 29.6694 0.219168V0.219168V0.219168C29.2082 0.0954792 28.7327 0.0324721 28.2552 0.0317408L18.2516 0.0164212L8.15375 0.000957446C7.73782 0.000320486 7.3227 0.0377583 6.91359 0.112802V0.112802ZM18.7253 9.95779L18.7541 9.97842C18.9115 10.0912 19.0399 10.2396 19.1289 10.4116V10.4116V10.4116C19.2178 10.5836 19.2642 10.7743 19.2645 10.9679L19.2645 11.0134L19.2646 11.0315C19.2648 11.2424 19.2091 11.4497 19.1031 11.6321V11.6321V11.6321C18.9965 11.8153 18.85 11.9722 18.6744 12.091L18.6663 12.0965V12.0965C18.4873 12.2177 18.276 12.2824 18.0598 12.2824L14.0693 12.2821L10.055 12.2818C9.85367 12.2818 9.65622 12.2262 9.48449 12.121V12.121L9.4257 12.085C9.29155 12.0028 9.17736 11.8918 9.09139 11.7601V11.7601V11.7601C9.00484 11.6274 8.93869 11.4825 8.89517 11.3302L8.8826 11.2862V11.2862C8.83147 11.1071 8.82994 10.9174 8.87818 10.7374L8.88572 10.7093L8.89958 10.6576C8.94412 10.4916 9.02171 10.3363 9.12771 10.201V10.201V10.201C9.23348 10.0659 9.36799 9.95608 9.52148 9.87948L9.55885 9.86083V9.86083C9.73664 9.77207 9.93279 9.72631 10.1315 9.72722L14.1431 9.74572L18.127 9.76408C18.3417 9.76507 18.5507 9.83276 18.7253 9.95779V9.95779ZM26.5545 15.8516L26.5626 15.857C26.7381 15.9758 26.8847 16.1327 26.9913 16.316V16.316V16.316C27.0973 16.4984 27.1531 16.7056 27.1531 16.9166V16.9447V16.9738C27.1531 17.1842 27.0982 17.391 26.9938 17.5736V17.5736V17.5736C26.8898 17.7555 26.7349 17.903 26.5482 17.998L26.4697 18.038V18.038C26.2299 18.1601 25.9647 18.2237 25.6956 18.2236L18.0082 18.2219L10.2882 18.2202C10.0399 18.2201 9.79454 18.1668 9.56863 18.0638V18.0638L9.44653 18.0081C9.30237 17.9424 9.17985 17.837 9.09328 17.7043V17.7043V17.7043C9.00548 17.5697 8.93837 17.4227 8.8942 17.2681L8.8826 17.2275V17.2275C8.83146 17.0483 8.82965 16.8587 8.87738 16.6785L8.89312 16.6191L8.92871 16.4848C8.96362 16.3531 9.02836 16.2311 9.11793 16.1283V16.1283V16.1283C9.20819 16.0248 9.31344 15.9353 9.43018 15.8629L9.50059 15.8192V15.8192C9.66172 15.7192 9.84758 15.6662 10.0372 15.6662L18.0134 15.666L25.948 15.6657C26.1642 15.6657 26.3755 15.7304 26.5545 15.8516V15.8516Z" fill="#4F88FC"/>
</svg>
